<mxfile host="" modified="2020-06-23T03:14:30.168Z" agent="5.0 (Macintosh; Intel Mac OS X 10_15_4) AppleWebKit/537.36 (KHTML, like Gecko) VSCodium/1.46.1 Chrome/78.0.3904.130 Electron/7.3.1 Safari/537.36" etag="-85tSfNnrizFu1ajmEuG" version="13.1.3">
    <diagram id="6hGFLwfOUW9BJ-s0fimq" name="Page-1">
        <mxGraphModel dx="1050" dy="531" grid="1" gridSize="10" guides="1" tooltips="1" connect="1" arrows="1" fold="1" page="1" pageScale="1" pageWidth="827" pageHeight="1169" background="none" math="0" shadow="0">
            <root>
                <mxCell id="0"/>
                <mxCell id="1" parent="0"/>
                <mxCell id="49" value="AWS Cloud" style="points=[[0,0],[0.25,0],[0.5,0],[0.75,0],[1,0],[1,0.25],[1,0.5],[1,0.75],[1,1],[0.75,1],[0.5,1],[0.25,1],[0,1],[0,0.75],[0,0.5],[0,0.25]];outlineConnect=0;gradientColor=none;html=1;whiteSpace=wrap;fontSize=12;fontStyle=1;shape=mxgraph.aws4.group;grIcon=mxgraph.aws4.group_aws_cloud_alt;strokeColor=#FFFFFF;fillColor=none;verticalAlign=top;align=left;spacingLeft=30;fontColor=#F0F0F0;dashed=0;" vertex="1" parent="1">
                    <mxGeometry x="220" y="120" width="480" height="280" as="geometry"/>
                </mxCell>
                <mxCell id="10" style="edgeStyle=orthogonalEdgeStyle;rounded=0;orthogonalLoop=1;jettySize=auto;html=1;strokeColor=#FFFFFF;fontColor=#F0F0F0;" parent="1" source="6" edge="1">
                    <mxGeometry relative="1" as="geometry">
                        <mxPoint x="340" y="220" as="targetPoint"/>
                    </mxGeometry>
                </mxCell>
                <mxCell id="6" value="API Gateway" style="outlineConnect=0;fontColor=#F0F0F0;gradientColor=#945DF2;gradientDirection=north;fillColor=#5A30B5;strokeColor=#FFFFFF;dashed=0;verticalLabelPosition=bottom;verticalAlign=top;align=center;html=1;fontSize=12;fontStyle=0;aspect=fixed;shape=mxgraph.aws4.resourceIcon;resIcon=mxgraph.aws4.api_gateway;" parent="1" vertex="1">
                    <mxGeometry x="260" y="200" width="40" height="40" as="geometry"/>
                </mxCell>
                <mxCell id="43" style="edgeStyle=orthogonalEdgeStyle;rounded=0;orthogonalLoop=1;jettySize=auto;html=1;startArrow=none;startFill=0;strokeColor=#FFFFFF;fontColor=#F0F0F0;" parent="1" source="42" target="6" edge="1">
                    <mxGeometry relative="1" as="geometry"/>
                </mxCell>
                <mxCell id="42" value="Users" style="outlineConnect=0;fontColor=#F0F0F0;gradientColor=none;fillColor=#F0F0F0;strokeColor=#FFFFFF;dashed=0;verticalLabelPosition=bottom;verticalAlign=top;align=center;html=1;fontSize=12;fontStyle=0;aspect=fixed;pointerEvents=1;shape=mxgraph.aws4.user;" parent="1" vertex="1">
                    <mxGeometry x="140" y="201" width="38" height="38" as="geometry"/>
                </mxCell>
                <mxCell id="48" style="edgeStyle=orthogonalEdgeStyle;rounded=0;orthogonalLoop=1;jettySize=auto;html=1;strokeColor=#FFFFFF;" edge="1" parent="1" source="44" target="47">
                    <mxGeometry relative="1" as="geometry"/>
                </mxCell>
                <mxCell id="44" value="AWS Step Functions workflow" style="points=[[0,0],[0.25,0],[0.5,0],[0.75,0],[1,0],[1,0.25],[1,0.5],[1,0.75],[1,1],[0.75,1],[0.5,1],[0.25,1],[0,1],[0,0.75],[0,0.5],[0,0.25]];outlineConnect=0;gradientColor=none;html=1;whiteSpace=wrap;fontSize=12;fontStyle=0;shape=mxgraph.aws4.group;grIcon=mxgraph.aws4.group_aws_step_functions_workflow;strokeColor=#CD2264;fillColor=#ffffff;verticalAlign=top;align=left;spacingLeft=30;fontColor=#CD2264;dashed=0;" vertex="1" parent="1">
                    <mxGeometry x="340" y="160" width="340" height="130" as="geometry"/>
                </mxCell>
                <mxCell id="46" value="" style="shape=image;verticalLabelPosition=bottom;labelBackgroundColor=#ffffff;verticalAlign=top;aspect=fixed;imageAspect=0;image=data:image/png,iVBORw0KGgoAAAANSUhEUgAAAkwAAABgCAYAAADvlS2nAAAgAElEQVR4Xu1dB1RURxe+bwGxoKIoliTYYjfGEmuMMdbYFViWYou918SaiC2JGnsPdhEpS/lj7xoLFsTE2Ct2ioCKiLTd+c/3cBUR2F22sMDMORyUN3Nn5pt5b765984dgXjiCHAEOAIcAY4AR4AjwBHIFgGB48MR4AhwBDgCHAGOAEeAI5A9Apww8RnCEeAIcAQ4AhwBjgBHQA0CnDDxKcIR4AhwBDgCHAGOAEeAEyY+BzgCHAGOAEeAI8AR4AjohgDXMOmGHy/NEeAIcAQ4AhwBjkABQIATpgIwyLyLHAGOAEeAI8AR4AjohgAnTLrhx0tzBDgCHAGOAEeAI1AAEOCEqQAMMu8iR4AjwBHgCHAEOAK6IcAJk2748dIcAY4AR4AjwBHgCBQABDhhKgCDzLvIEeAIcAQ4AhwBjoBuCHDCpBt+vDRHgCPAEdAYAalUWoSIrMzMzIoxxvDvIgqForBEIrFkjFkKgmChVCotiKilRCI5zxgzJyIz1W+JRGKexd9sGWPPNW4IEUGWUqlM1aYM8gqCUFgQhFdvyyoEQUjFDxEpsvhbUyIKlkgkKUSUjB+lUplkZmaWSERvUlJSEhhj8YmJifH79u1L0rY9PD9HwFgImARhkslkXxa2YHVKWpnVNTeTVBCIFWWCwJSM4lIVykcR0SmXBEG4IZfL7xgLGF4PR4AjwBHQBAGpVPoJEYk/jLEKRFReIpGAwJQlIhsiKk1EpYioJMgSEb0iotdvfxKICMQBPyKZICIQi6qMsesqIoLf6ckIyEmGv5UQBCFGk/aq8oB4vZWvTTFSKpXF0E4QrvRkDvIy+5sgCFWI6CkRgQgWIiJLIioMsvj2B/KsGGPFBEF4SUT4AflDf6KJ6BljLJKIIojoiSAIjy0sLB7v2LFDK4KoVSd5Zo5AJgjkCmGSSqUNPi1baIhlIWpWqoS5TQ27wsWrVLCwsSlpTsWLSqiQhUCMESUmM4p7raCo56mKe0+Snt19nBz/4rUiKjFZuTcyJnWLXC5/wkeVI8AR4AgYAwGZTFZDoVDUI6I6RFRTEIQaRFSNiEAcHhDRQ0EQnjDGQA4iBEGIwmKvUChilEplrLm5+Qu5XA5CxFMWCAwYMKBwXFxcKUEQSkskkjJEVFYQhHJviShI6WdEVImIQMIeEdFtbKaJ6Bpj7EpSUtKlnTt3gpDyxBHQOwJGJUyjhrlNK1FMkDWoXqR8qy+LlatYBhsO7dPNh0l0NOTVo7CnyY8fPUv+w8dHHqS9FF6CI8AR4AhkjYBMJqvHGPuWiFoxxpoTUVEiusgYu0RElxlj1yQSCTTfbziOxkfAxcWlXGpqal1BEEBiGzDGGhMRSOwZIjrJGDvm7+9/PGPLZs2aJZk1a5bS+C3mNeZ1BIxCmMaOcPnNpqS5Q6/WJWvU/xxaWP2lwyGv4o+Gxt99Epn6+zYvH1/9SeaSOAIcgYKGADQc8fHxUwRB6IDFlzG2l4gOmZubH/Px8YHmiCcTR8DR0bENEX0vCEJ3uFwRkY+FhcVKlQlPJpMNUyqVc+Vyua2Jd4U3z8QQMChhcnJy6lL9s0ILpG2t631ZXb9EKSOO+87EvTgaGn/tUWTqD76+vrdMDGfeHI4AR8CEEXirTRrEGBtMRPcEQRjv5+d3zISbzJumAQIYV6VSuYqIoCFcLZFIDiuVysVEVJsxdtDf37+TBmJ4FiMgIJVK65QtZdGpSCFqLTETKhQyE4pKzARzkBSFkilSU9mblFSKSVaws8+eK/b6+vqGGKFZH1RhMMI0aVQf78a1C7dx6ViqvLE69fqNklYHRN9/EJG8ao2HN14KnjgCHAGOQJYIODk5fccYm0JEXxLRRjMzsw0+Pj73OWT5CwGpVGonCMIoxtgkOKq/7V00Y2ykv7+/PH/1Nu/0xsHBoX6lCoWnWBWRNKxdpbBNg+pFbKtUKESWhTKnJkol0YOIZLpy783zf28lRr94pbj7KCp5vlwu/9sYvdY7Yerdu7dtDbuiu/t2Kd2kbhUchDB+2hv88sWRkNfHlqz2sjd+7bxGjgBHwNQRcHZ2rqxQKJaDKDHGjvj7+w8y9Tbz9umGgJOTkwtjbAURwZlcla4qFIoOgYGB4bpJ56W1QcDJyal15fKFfq9btXCVzi2KVyhbCucmtE8JiUo6FPIq9tzVhAdPo5L/2Lrdz1t7KZqX0CthkkqlNWvaFQ6Y4FK2bukSKhKveWP0mfO/O2/Ic9/zk4tWerXWp1x9yOrduzeOGn+UgoKCYkzpWY8ePYpbWVmZ5/bx3c6dO1taWVmVSU1NxdHrD5KpYabJ+AmCUMjMzAwnpnLbWdhcKpVWTE1NxRH3PI9rdn0wNzeXyOXyZ8jj5OT0C2PMnTEWIAiCq1wuV+jjveYyTBcBBweH6hKJ5CgRfZqxlYyxP/39/Yer/g4ynZSU9NFJO3xrpFJpydTU1I9Wd3XP3NzcSiQkJHx0yklduZzWZ6ojAYVK1U+KejWuXaSerH2p8hI9MpCD5+JeHb3w+tq9p0nD5XL5v4bAQG/NlUqln9euUnjnjAHlahcSrY65n+48TiKPoJjTf6z0apXbrendu3eNatWqdatZs+bXrVu3pgMHDlRP36bixYsnDhgw4Ort27dL7N+/3ySeXb9+3Xrfvn1l4+Lizly+fNkvMDDQqDZjqVT6bd26dbuWLFmyRZEiRaySk5M/YOG1atWK6tChw6NDhw59duPGjQ8cOE35mUQiUUokkldxcXGXQkNDV8rl8pvGnp9z584dVaJEiV7FihUrlZCQgNg475Ktre0rmUx26+LFi2VOnz6NI9x5/lnRokUToqOjI+7cubMtLi5OqlAoZgYEBNw2Nu68vtxFQCqVThUEoTJj7BOEKyAiO8ZYUYlE0sbW1rZq5cqV+1hbW1d4/fr1R063Y8aMCX358mWhbdu2fZGxF+qexcXFWWzdurW+tuVyWN+p8PDwS+PHj4/08/P7X+4i/r72/v1dXD6vYDF7aG+b6rY51Cip60tKKqM1/tEP70ckeS5b4/2zuvzaPtcLswELrmlnefLnH8p/kZXtUduG6Sv/zQdJ5LEz5siSlV7t9SVTWzkODg4NmzRp8nvDhg07fffdd2RhkbNwCtrWq6/8//77L509e/bCkSNH5vn7+/+lL7nZyZFKpVXat2/v27Rp0yYNGjQwRpVGr+P27dtkaWl52M7OrqcgCAhgaPAklUoL+fn5TY+IiHAvU6YMmZvnTBVu8IYaoIJnz55RaGjoy5iYmAV9+vT53QBVcJF5DIG+ffsWS0xMtPHz82vx8OHD9SVKlChubW2dx3rxcXNfvHhBR44cifj333+3zps3b2pud2jCSLfVTeoUsTeWT/Oxi/EJu07FnVq6ykuvTv16IUw/jnU7/aOrbctypU3z43vm8usU/6MvNixZvWOksScOFqiGDRt69ezZ07FOHcS7y5spMjKSvL29LwQHB3eXy+WIuGvQBF+D+Pj4MVZWCIycv1NMTMyBMWPGjPf29kYAPoMlqVRq9d13323t16+ffbFiCK5cYBNi8DQSBAHxlHgq4AgsW7Zs6qBBg37Pj9+aoKCgl4cOHZq8du1aj9wa5omj+/h1+6Z41+8aWiGOmdHS9fuJtGlX7OlFerQw6UyYJox2W+3WyXpE45pFdZZlSCS37I19uvd03CC5XL7fkPVklI1jra6urkd79OiBaxLydHr8+DF9+umndQRBuG7IjmzdurWbs7PzrkKFPrAUGbLKXJV99+5dksvlHtOmTRtmyIa4urp2GTJkiH+bNm0MG+PDkJ3Qk+wzZ84cWbNmTd/t27dzZ189YZoXxTg7Ozfs1avXdplMlnd3s9kAn5KSQqtWrQr+559/ent6eiLyvFHTxFGu2x2+KyVtWb9ornzM7z5JonWBMXrzZdaJ5Dg4ODRr37SEfHjvMghXb/Jppkf4tbmLttc1ZkMZY18kJib+V7hw7pwYNEBfxwiCgLgmBktLliwJHDZsWO+iRY26ITFYfzQRvG7dujMXLlzotnHjxlhN8uckz/z58xc7OztPrFTpA7eknIjK82XOnDmTsGzZsm481lKeH0qdOtC3b98u48aN29O4MYKE58904MCBRx4eHm0CAwPvGbOHo4e7unduUXx8lxYlctXGefluIm3ZHRukj1PzOhGmKeP6nP99ZIUmgk5SjDeEtx4m0br/RW9eumrHQGPVGhoaal+1atWA/GAXB2ZLly49NnHixLYGxE9YsmTJsQkTJuBKigKT/vzzzysnTpzotmPHDtxJZpA0e/Zs/yFDhjhUqID7YQt2On78OG3atGm0p6fn6oKNRMHu/dChQ9379es36+uvv87PQIQLglDRmB10dHRs+W1DK5/R0rImoUzZczoudk9w3Ky1671X6oJDjqnOwP6yfm6dSq1u+1XxPOVkssgr6uH5awnfyOXyh7oAp2nZn3/+ec3IkSNH5JdFavbs2aGzZs36StP+5yTfrFmzLri7u+ffLV8moKxdu/bqsWPH2hvSP8zd3T1g/Pjx9vmFvOdkbqnK4CDDsmXLZFu3bvXTRQ4vm7cRGDt27Kjhw4evql27dt7uSDatf/DgwbOffvqpjVwuv2asTk6b2Off34ZXQDBYk0m/bY28e/lucmtdrjjKMWEyRUA0GZmImFRatCPKf/FKL6km+XXNwwmT9ggWRMK0Z8+e4K1btzoYkjCFh4f/ULJkyU1FihR4FybihEn79zI/lpg7d+73Li4u+6pVq5Yfuyf26dixYy/WrVvX08/P74QxOjl+pNuC/l1LTW5g4OvQtO3LsxepNH9r5KElq3d01LasKn+OCJNUKv1+UPfS3p2a565tMqedXuAZGRZ64019uVwen1MZmpbjhElTpN7n27x5884BAwbg4syClHwEQXAxZIcZY85EZNBIuIZsvz5lw9F+0aJFrdatW3dan3K5rLyFAGMM9ul8famyMQlT9+7dizb/otSl6QPKfW6KMwGHv3affNEzICDgQk7alyPCNGmM27EFoyq0MdNnmM6ctD6HZa7eS6Q//4qZsXLtjt9yKELjYvmNMM2ZMyfE3d29qcYA5CAjY2wWEbnnoGieLXL69Oljy5cvR9Rpg4Vs4Ca5j6ZHEUEQPooen2cnEW+41ggUBJOcMQnTuJFui0bY20yqaWep9VgYowCuUpm5PuLI4hzGZdSaMA0YMKBwbTt2fXIf28rG6KCh6pi6JvzCgmXbmxhKvkpufiNMRDRLEITZhsTt9OnTHi1bthxiyDpMTTb3YTLuiHCTnHHxNtXaOGHS78jM/LHP1dlDK5h0iIZlPs8envjnZZOgoCCtwyxoTZj6ujpKRzraejevVyx3L4vTcZxXyZ89OnrhZUPc5aOjqGyLM8bawIxsyDqMKTs5OXmOpaWlQbU/BdGHiRMmY85i4j5MxoXbZGvjhEl/Q4OrrAZ0K/2/3A4joK5HuP1jdeAz95Vrveeoy5vxudaEaeJo16C5Qyv0KlpYonFdSckKCnv8kmysC1PZ0kXpccQr+rR8cY3LGyLjhRsJtEIe7eLp6etjCPkqmTkNKxAXF0ePHj2iypUrE6Iyvw0aacimaiTb1E/JPX/+nF69ekUVK1YUr/2IjY2lEiVKmPwVIJwwaTT99JaJa5j0BmWeFqRPwvTmzRu6fPkyNWnShAQNY+1cv36dSpcuTeXK4Vq7rBNjjK5cuUI4zZeD64yMElZgwihX718GlncuVTx3dCmpCiVdvhlNDet8cK1opqBOWfX0/MIVXs20nbxaEyZtT8ftOxFGsnE7qXmDihQZ/ZoSk1MpPOo1PT45gkpY5UrwTxGjuNcKmr0x0nvJKi9XbUHTJn9OTHK//fYbzZ8/n9q2bYu7rwghCczMzOjMmTPaVG2QvKZImBISEmjevHnk6ekpYgWSeenSJSpZsiQ9ePAA9+BRlSpVDIKHvoSaEmH6448/aO7cuSLx/PTTTwkBRFNTU6lnz57k6OhILVu21Fe3c00OJ0y5Br1JVawJYfrnn3/oxx9/pKNHj4pt/+abb8TvMaJoh4eH071793CZOuEgwciRI8VvT/36H92zm2m/sZnr2LEj+fv7Z4nLf//9Ry4uLnTt2jXCHXH4rmmTjBVWYPqEPpd+HVEh24777r1BM5efolthz6l4sULUuF4aUUxMUtDV29H06nUyvbk8gQpbanfNGuSOnXuErEtY0s0Dg9XCs9AzKmzK3K1V1WbMkEFrwjT/5373pvQrp9Hq8/JVElk3XkETB35Fi6d+J1Z9/r9wat/fj0IC+1LNKqXFv128GknJKQqRVOU0bQm8Qg6daoiDoGnKKcvUVD7yaUuY/v77b2rTpg399ddf1KNHD1IqlbR582aaMGECQeukSlu2bCEHBwcqXjxnmjrsWFavXk2jR4/WpjtkaoQJd9xhAU9OTqagoCD66qu0EFHAbdmyZTRp0iRxZ1a3rv4DvOs6BumBN7WwAjNnzhRJ0+7du6lr164UExMjfrQPHTr0bm5qNXFMLDMnTCY2ILnUHE3DCmD+47LqRo0aiZvY9Klv377k5ORECH554sQJ6tatm8ZaIHzvy5cvTzVr1swWgXXr1tGIESNyRJiM4fQ9dOhQixoVk29Pci2r9hqBnUfuUM8RQTRlaDOa/2Prd/0GB6jWbj1d2zdQq3VcJcBt0m66ciuaLu0aoHY27TkVF7t1X2xHuVz+4WCqKakVYZJKpXY9WpU826dzKY1CBV++9Yzqd9tCrt1rk9fibu+a8seG89S4Xnlq29yO7j16QS2cvGjDr99T97YfxsIAgIUsPlbvMUYEjafq957j96jb0ACKCRlDpUtqfgWJ+/qI63P+8NSbg5qjo6O9v79/YHrMtSVMa9euFXcpHh4eNGTIe7/nLl26UGBgIOGKlT179ogvJV5iqHPTJxCHzO5gA0GCmlj1e8aMGeJiiN2QNknfhEkmkzXx9fUNSd8GbcIK4EMll8tp79691Llz54+6Apyw+DdtmnawLyMOmvQdO0mowdOr2bMbA01kZpJHr2EFnJycOvn5+R1IX482YQVWrlxJY8eOpX379tH3338vijl8+DB16NCBpFIp+fmlxXvMCZ6qNqnKaoOXQqEQd/cZU1Z/z0o2DyugDer5N6+mYQUwVyUSiWhuO3/+/DtAoHmNiooSvw+2ttmbgrSZ7xnnMzZnP/zwg0kQJqlUOkAul29JPyscHBzq9+1c5mjP1iVs1M2W4ItP6GvnHTRtWHP6bdI377KnpCrp9v3nVKNKKTI309zlR6nE2Aj0w9R99N/NZxQa1E9dE+haWCIt9YkatmGzr1aXEmtFmHB33NDeZQ92bFq8hNoWibt8RtU7bBBJUd9edWnVzPaiGQ5ECOlNYio16rVNfF71M2v6omYZ+t+a3hR06DbtPnaX4hOS6cLlSNr2Rxf6utEndDMslqBJ2nv8Hk0d1oyG/XKQXLrVJg/ftEW/Ud1y1LtDdfp5ZAtNmke/b4sMmz5vm9ZqucyEu7i4lEtNTT1FRGaMsXOCIKyQy+VntCVMDx8+JNVdX4sXL6bx48eLL2p8fDzhNm28rM2apZlesdvp3bs3tFj0+++/E8pevXpV1K6ARMA8hR0MNFQIVghtFHYq/fr1E7VLSM2bNxfLQ4ugSdJnWAEnJ6fWjLE9RPSAMbaPMbYxICDghqZhBcLCwqhq1ariDxbAzBIwAW7wLciIA9Tg2BVC3Y6dITR40ORNnDhRFAVV+PLly0WSunPnTpo6dSqNGjUqyzE4ePAgYvuIJkBovVatWkWff65ZOBJ9hhWQyWQ1FArFEUEQ3jDGTpqZma329fW9qE1YgcwI0//+9z9xvmFHjfkCUt+rVy+RVJ06dYru3LlDpUqVEs2jR44cEU16n3zyiYhJnTpp+xIsML/++qtoXnjy5Ik4djA/w+fs9evXWY7FyZMnaf369eI8Br54N9q3by/69rm7u5OlpSXBdAKzIcZJw8TDCmgIVH7NpolJDn3PijAtWLBANNHBtwibiI0bN9KSJUvE7yrejx07doiWgBs3bpC3tzc1aNBA3KjCFBccHEzbt2+np0+fEt4tpKzmuYowQYuObxKu9hkzZgytWLFC7dDoW8MklUr/I6IyRPQvY2yxv7//EalU2vUnN9udTeoUVct0siJM4+YdpbH9GlE1O2tx/d/kf5lKFrekejXK0LItoaLyJHB1T/qyVhoxjX7+hob+fEAkS08i40XfaFubohoRpqjnCGIZtWLpGq9xagFMl0ErwoRd6wSXsrub1y2qsYHx4Kn71GmgXKwSjt5bF3YRNUuq9M+1KGrUayvt3eBInVtXoYjo11Sh5RryXtqdnLvWojFzjtClG1F0YocLnQp9TP0n7xMJ1iDpFwRn8q/qlRcBg/3yRehYEWBN03LfZw9P//e6ulwuT9a0TFb53hKmw0RU722eMBCnTz/9tNDkyZPttbkaBaYQaEWQ8DLiZcHCokqqxUxlz8YL2L17d5EwffbZZ6J6183NTZSxbds26t+/v1h09uzZ4sKGv2MRg1N5RvWyBjjoLazAW8L0FxGpLme8CuIkk8kqOTo6qo3EjoUamjf0HYQmu5QVDlisgQ8W/jlz5oiLPcgmfHW+/PJLkfhA64e/QZsFx04QqIxjgEUcGhl8yDAO3377rajChwZPEydNffowgTAplUoQURVbuw3iVLly5cozZsxoq8nVKBkJE3w1oGkCicRHHRo9kHTsqkHqMRb4mE+ePFn06YDpDkQfZmVo41RzEx95YLhhwwaKiIgQST1IKhYZaAOzGguYVEHyYa7GgoF5bm9vL5Jb9Adz+uLFi7R161bxubrETXLqECoYz7UlTJjv+I4iYYMAUrR//35xHm/atEn8fuD9aNGihehTCa0QNqrYrEVHR9Pw4cPFbwdcIaCxxXe6Xr164gYDKat5riJMnTp1IlgHQMSw+cWcb9iwYbaDZQDChKCPqqurwkGcilhKbk3rbzuuViX1Fh4VYerwdWWy71hdtBRduxNDq7ZfpDuHh4iE6dylcOowwE/0afpjShuqV70MOY3bSe1bVqLA1b1IoWAib3DuVpumDWtGL+KSqNRXK0SliSYapjdJSvplXYTf4tVeMm1muraEqfvkPmV3Nq6l3S3ycOaCuizkclpMvvW/dqLB0jTfsIyEKT4hhQZN30czR7WkutXL0LTFJ2j19n8o7p80IjjC/RCt8/6X4i+Np2JFLMS/rfS8KBKmlxfHaeVIPm9zZNR/d968IaIUIgIJfEREqssCnxNRqbdg4lnq23+/SLfAPwYPfPv3BCKqTkRpjXqfUr///nvzgQO1u+93165dNHjwYFHdixcOL5fKrKRazF6+fCnuVLCIYdeOlwrmuFatWpGdnR35+vqKrUDYf/z/2LH30Q1AELCzSa9e1mTiLFq06O/z58/DTo27+N4z3w8Lw2aSpkb8OKXHEm8Xtgsf7EokEonC3d3dTN39TvgIAVf8YGenLmXEQaWtg+YCZh4QSGgroEEBwYKmAreYwwSlImcqf6iMY6DyW4CGAwnaJXzMsLNU55+A/DNnznx848YNho3T23mHGCEqHT+wVNmh8M4iHxJ+q95hhMdQqcMtGGPlBEH4YGMjCIKid+/eZs7OCPidfVL1r0aNGqJWCCQRJk8QSeyeodkBaQG5h4YS6ebNm1SrVi1xpw3MkEDQQfpBJvEDjRvmIYgPEogTHPIxx6E5zWwsMK9BikDY8G9oW1E/NKwymUwMEQCnWzj7Y5wyM81m7C0nTOpmQMF4ri1hwiEI1WYWWu01a9aIhAkbq9OnT4vfXhAm/IaGFd9nHOKZNm2aqKWCw/aAAQPeaYbg8A3zGwgTLANZzXMVYcK8h9YWGnM4lqd/17Iasd27d8dt27YN65MqSCsu+Fb5GqX/jr/7hjDGHgmCoFoL7xORKu4i1kiYOD5wFmaMsdqVCwtzhqr31klPmKSda4q43LgXS0s3X3hHmNCXpg6eZF2iMB3cnPYtAWGC8gRO3QEHbpHjmL/oxoFB73yhe40MokfhrzQiTKkKRlNWhe9cstor7YOtYdKKMDk6Onb+qU+5XU3rFNX63CCO/P229iy5r0i7ieC0jyu1bPTJO8K0b4Mjfd86zZccjBMqOc+/rtLdhy9Ep3B26yfx2Y/zj4t/jzwz6l0XVYQJpEobp+8FnpHhl+6ktE1JSSkrCMJjxtin+J3WBq3/XV8QhIVEVONteSxm1+zs7K6MGzdOBsKibYKPEvyYsHNHgskCJ5ZUixlMSCqn78TERJE04MXDi4vFR6V1gaYEuxC8dKqUU8I0ffr0K3fu3Omhwic9ThYWFkJKSgrenXc4ZuxzumeYQ40FQfBgjKlMvPBqv16+fPnyS5YsqaROM4NTK+3atRNPE6p2aNlhnBGHP//8k3766ad3xFJVFpoh+CogQUMEtTfIFLQmFy5cEElUxjHAhxEEFz4+6RN2mppodBYvXnz73LlzfRhjltnNxbcfKlEjmtUcJSLYpBHFXvVRTCKiWzY2NvTLL798AfOXuqTqn4+Pj0hA0L/0CeEaIA+kFQsAEkycIEowb4IkqeYsTKIwfY4bN07U0oHwIFRG+qRuLKD9A5nFgoWdtcqErPKrgqylS5eKdWhypJsTJnUzoGA815YwZfRhUpnkQJhgYsM8VxEmfK8x96GJVZmJsWkDSYLWGik9YcL/s5rnKsIETS+cxLHZBXGCRhUuFtml2NjYyOHDh+ObIG5kc7C2ZVwX4c/xhapOxtiNQuaSyKG9bL79tpGV2omjiUkOQuDbjPVcRZigLIHF6u6RITRp/jFa7/ufqCRRRXDQxocpKYXR9LVPA5as2uGotsHpMmhFmKRSaavh9mX2t21s9eHXLosaffbcoF7tP//giODURSdogce5dx7yKg3TgU1S6tgqjcQOnrGfIp69Jr/lPWjFtouilkkTwvTq3/FkVTSjguwM26oAACAASURBVCdrOBZuj7o/Zc5WjU78qQP1rUnuKIi2IAj/ENFmc3NzebVq1dxHjhw5QlOTHBYgqHFVCbsO7OhDQkLeOTarFjPsYPBC4jd2NNj9Y7cPta3K7wZy9EmY9On0DZMcEe0iomTG2BUiWkREh+rWrRvs7u6uUvlmCb3qowHSiNNy6i6VzYjDwoULacqUKZSUlJSpozy0TFC/gyjBfISPYUbCBOxRL8gdtHzTp09XN1UyfW4Ak9x+IioP0i4Iwkpzc/Od1atX3zB+/Hh7TQhcZj5M6ggTNJrQXkFrNGjQoHfZoWHD4QSY23DSB4Q+Y2gCdWMBYTB/DBs2TJQLc0efPn3Ef2Ohgm8VtLGa+nVwwpSjaZrvCulKmKB9BUGHhlofhCmrea4LYdJ3WAGpVCqa5Bhj8GUKVCqVnkWKmDWa5FJO3rCG+ou9syJM8G22MDejpORUkTNkR5hcJuwi8Iv0bjggTLBmnQ/oq3aexsYpaN7mCI+lq3ekfVA0TFoRJgcHh+qy9qVPSdtZq48MRUQzlpykT8pZ0Ui39zbWs/8+FYHA31a7t//IJPe/w7ep98j/iUcD69csS7+tOyvK0YQwaWuSm7Mx4qb7As9aGmKVbTYVYSKitSBK3t7ekSigrdM3NBLYbaeP46FaTHBKDgtDRnMQ/DiwSMFEh5cXWhfs4A2hYdInYXJ0dGwjCAJ2K5NBlFS+ZNpE+oZWB5o1aBfgS5MxPXv2TPSZgYYvI2EKCAgQSWb6XRoIKrQU0DzB+R5+Mzi1qDItZSRMKrMoSAE+njDBWVikkXb4NcHPQbWwZzeB9BlW4K0PUxA0niBKO3bsgHkZMWN+KFmy5CZ1xBJ54Qek8k1SnZJTR5jgdA0zWXoTKTABHvDdwNwFmQe2mNNIMEeAaMJ3I6uxgIM3xhhkC2YQ7MqxIcABB4wPHPGhtQLOCMcB7Recz7NLnDDp46uX92VoGlYA3wWQoowapvQI6EqYUAe+/ZnNc10IkwF8mM4xxvaCKAUGBt4DBlKptOmgHjYHOzUrrjZIVFaECXLgyN3nxz20f6NjtoQJSpT5f56j9IoWbQjTncdJtNTn2Y9rPLwXazOLtSJMiLVQ85Pk2xNd1MdaQCM2yi/ThN+O0uGtTtS0fpptc96aM/TLslPvnLwRAbxqWw/xZBucvBHo8qcFx2n22K+p23fVSDp2p+jkDQL1uZ01TZp/XPRhSro68V3Ige1/XaO+P+0RwUNq16ISmZmp79r0NeEXf1+2Xa0mQxtAM+bVljDBfwYniOAoC9Ur7Ls4DXT//n3RRwSaDJysQD74bSBht42/wREXCY7QWLjgGIiFHGpg/FY9Rx4QDdi/URd+sAhpkvRJmLKqT5uwAlBRQ7sGR+P0xAehAEByfvnlF9FsVL169Y9wgMocmj9oifChgmM98sKJHCZM+OPA9INAjnC0hGkUJ11at24tBrFLPwYw3cHhGflx6g5jBXMWxiizMA+Z9F2vYQUyw1absAKIXwVH7IzhLVRyYaIECQU26K8qgVyBOKkiGMOPCyZM+H5hHoIYYaygCcWcBN4g/PBpymosYObDKTv4bQBLmC2wOMF3BPMWJjqMHRzu4dOE03fqzLk8rIAmb3v+z6NpWAFsjKCZhTY7fTy89AjB7xSHHFQx9FSHGmbNmiWak1U+SnCHgPYaCZs4JHw/sHnIap7jXcQ7iW81fDvxG+9SVhvF9O3SN2HKbFa4urqWavWF5aURDmVUfk9ZTh4EmXQev4uGyr6kP+e+X3eeRsXTwGn7qckX5Wnu+FZUs9MGKluqKJ3ySYstDZ+lkxcei+44qpBFyLvrT3uCT1Jz6XZC7Mfj251F5+/s0tEL8a/XBUV3lcvlf2szy9WzigzSfvmp75U5Q8prFAXwcPADGjX7EKWmMtExC2EC0OFlM9rSuP5pPAW+TV923yJ6yYMwLZ72negdj/93bVOV3HrUIdeJu8WwAgghAGYJz3nEdlo09TuqULaYSKgQ8AopvezsgEhJZTRlTfiepau83geI0gY5DfNqS5jwYuF4OswLCMKInTAiWYMQ4eQVEhYcLD5if5ctExckkCQs/NAKwPwBx0TsvLG7Rx4kmItwigNaKJW/CT4AIFIgHZokfYYVyKo+TcMKqMrjAwatEHZh8HGBozJMmFi8ocnAwo6PTWY4wN8AJAfYIcFEB58DYITFF6QS2j44bqoc9+E3Aw1e+jGABgX+ZiCvSGgDTtZpGvFXn2EFssJV07AC0PjAN0MV6Tt9qAXIhuMp+gtSD7yBl0qLBtMoiCT872CeAwbw38CJNiQcUAABunXrlvh/OMdjniJlNRZYaKAxwu4e7wDeCRBhkFo429++fVusE4QKWiqVw7kG85mHFdAApPycRROTHEg/DizAlIwETanqpKYKGxB4fGOgVYYLBawAyIPvNsg8CBK+s/iO4JuLzRTk4f9I2ATg+5zZPMemGUFj8c5gMweShHcSBA3fGYQkyO6AjDEIE/ow86c+V2cPyf7iXZjRYDHCmo2EcELm5oJ4yi0qBn7pRIe2OInxmEbOOiT+f/P8zuJhrgFT9olrP4JdIuglQgxBqyR+b6uUIquihUQlCg6U4RR9dmml/NnDc9dSvvDy8nofDVqDia41YZo0xu3wojEV22kgW4yzBLskjvo/i02g2JeJVPmTkmRZ6EOfcZAmMEMb6zT7J5y+X79JeeePBDlFCmcfySDhTQopGWnsw3T9fiKtkseMX7N+h/ozyJp0Nos82hImLDQ4SQH1L45i42XBaaSMwfpAorCQwIcJCQErkRfxaJBghlJnesG9a1j4NdSAqHqot7ACWcF6+vRpj5YtW76P2qkh/jD/IDYTCBQ+UurMMiqxwBEaPNznlNEZGaRB5VgPjKG5wHF5pIxjgL8h1APqx5hp4nysaoM+fZiygktTwqQh3Nlmg+YPcxlaJJWJMn0BmEqxY8/4LKuxwNgCfxxuSB+sFX9HQl3q7uNKXz83yeljlPO+DE0IkzF7mdU816UNxiJME0e7HVgwqkJHcw2sO7r0J31ZcAeQrTKlilBcfLLGp+Snrwu/9PuS7Q20bYfWhGnEYJfxo6Vlltapoj7egraNMWZ+z33Pw3edetlaLpffMWS9jDGcn35/nt+QlRlBdnJy8hxLS0t3Q1aljQ+TIdthTNn5jTAZE7uc1MUJU05Qy39lTI0wGQJhYxGmAX1lzsPsy3hqE6fREP1VJzM8OoX+2BHtsXTVdq0cviFXa8IklUo/afdV8bPDetuo4g+pa59JPv/5z/Arvy7enr3eTg8tDw0Nta9atWqAJieT9FCdwUUYw4eJEybDDKMxNUyG6YH+pBqbMEmlUqjVP5HL5Q8dHR0/cgMoXbr0AQ8Pj5TMnkVHR+8/fvx4qj6fmWJ9UqkUd/A80/Z+L11mRUEgTDjvIQiC+lgiugCZVlb4dUa/29P7l/vwjjPd5epVgtf+5+F/nXzZSS6XX9ZWsNaECRVMHt8nZMHICmm3nObB9DgqhZZ6P/tzyWqv4YZuvrYmOUO3R1f5nDDpimDm5bmGyTC4ZiXVmIQJ4TPq1q07ukGDBvV79OhRKTQ09CP1PK7MgNk9s8j7BeXZiRMnku/fv/8gLCzs7OXLl1cHBAScM/SsKAiESd9hBbIbkwmjXQOm9ytnX8Za48tADD3EH8mfuvppyILlXmmXi2qZckSYhg91HT24W6mV2kb81rJtBsu+/q+Yx4fOv/rO0OY4dIATJu2HsSBqmPQZViArxLUJK6D9qOWtEsYiTPb29q2/+eab3zp06PA1TjXxpB4BHAw4dOjQsTNnzkwOCAhAzB+DJU3DChisAUYQbCyTHLqCkCatGxQ9PFKD03JG6PpHVRw89yrOc2/swO3efgE5qT9HhAkVzZ7S9+bMQeXFqNZ5KeF03PS14ScXrfRC0ESDJ06YtIdYm7AC2ks32RImFVbAZFHSU8OMEVYAZrhatWr5uLi4OKq75kdP3co3YhBj68yZM9OGDBky35Cd0jSsgCHbYGjZxiRM6MuEUa47f3Sz7V6xjOZBpA2NgUr+1DXhFxYs2552jUMOUo4J0/gRrn8M7mnzY92qecv5e8eB55F/nYxz8PPzSzsjauCU3wjT3LlzQ2bOnJkjdaamUGsbVkBTuaacz5TCCpgyTnpum0HDCtjb23/q5uZ20N7evrae211QxMkFQXAyZGcLgknO2ITJxcWlTN3K5mdm/FBedfm3IYdQY9mbdsU82X/2lbNcLj+lcaEMGXNMmCBn5uS+12YPLp9nPgYv4hU0b1Pk8cWrvL7LKWDalstvhAnKRUEQZmmLgzb5z549+2ezZs2GalMmr+ddsWLFjb///rurKnKuIfozY8aMXePGjetWtmxZQ4jPUzIRgX3x4sXfrVu37rghG84Ye0lEH17EZ8gK85Hsu3fvRo4ZM+arffv2ifd7GiKNHDly8sCBAxcgll1+TQcOHHi5ZcsWBx8fnyPG6uOwIS4ju7csMa/r1yWyD7lvpAZdvptIW3bFbFuyZkd/XarUiTD90N/lB8e2JRZ3aWEaoKgDAnfHnbvyqp0hF6WMbWCMQRtjcOdFdX3Xx3NEon3z5s3PxYsX/1Uf8jKTATPGV199dWDixInt1EVrNlQbckPu+vXrQ48dO9ZVdaWOIdowb968jf379x+IYJMFPQUHByuXL1/u4ofIpAZKMpms3sKFC0Pt7Ow+uNndQNXlO7HHjh17uW7duh5+fn4nDNW5wYMHDx06dOifqsu2DVVPbsq9cuXK48WLF7fdsmXLbWO2Y+Io112De9p0q105d61Qz18paL5n5PmFy7ya6dp/nQgTKp802vXIRFfbtqZor0wPzol/Xr8JOPZi4Yp1OwyqHck4ILhOZuLEiS9q1qxZVNfByu3yuN7Cz89v1dy5c8cYsi2zZs1a4ubmNuHzz01Ko2uwLiPIo6enZ+CUKVMcDFYJEa4gGeLm5uaBa3MKevL19b0dGBg42JCLMY7JT5o0aWezZs1Mz5kjD0wAYxAme3v79n379t3Uq1cvtVd65AHIsmriFkEQ3t/obsSOTB7rdmasrGzzT8rmzisAn+W5myKu3XmiaKuPzajOhKlHjx7FG9QocXb20OxDohtxjD6q6lFUCq3wfXZ80UrjmeJUjXB2dq7YpEkTb2dn59YVKxojFIbhkN66deut3bt3j/T39zeoalcqlX7bvXv3P/v27VvTcL0xHclBQUFR3t7ew+VyeZAhW4XLs7t27bqpT58+rTKLvm3Iuk1JNo7u79+/f/PPP/880JDt4oRJN3SNQZiIyGzRokWebm5uLri7M78lnAZ99uxZz44dO+7Mjb5JpdJCVT6xPD3KweYru3LGVbS+SVLS/G1RN67eS+gdEBBwQx/915kwoREymax5o5qFvSf3sa2sj0bpU0ZCopJ+3Rz53+3HSU3kcnmyPmVrKsvJyal9u3btFrZv374hruzIayk6OpoOHz78+OTJk+vWrFljMHNcelzgW9CmTZvR3bt3/ww30+fHhKtsBEF44unp+XO/fv22GKOPvXv3tg0MDFz/+vXrHhmvgTFG/bldB+6627Zt2/GQkJBRcrn8miHbwwmTbugaiTDhzsOK3t7e0JpP1a3FplUad+AdPnz4f+fPn0d4BqOa49IjATeLShUsj7t1sm7VoHra9WeGToi1uDYg+r+7T1PsfX197+qrPr0QJjSmj4uTQ/Mvii0d5aj+tmJ9NV6dHKjj5m2OvH79fiJuJQ5Tl9+Qzx0dHds1atRosK2tbWMHBwdLa2tr5aFDh9IugkuXWrdu/drS0pKZyjOFQhG+cuXKhNDQ0I1yuXyHITHKKFsmk33p4+PT6fHjx9ILFy5UK1asmEKVB/e0tW/fPv7q1auWT58+/UDfa+rPYmNjzYsVK/ZSIpGc7dKly0hBEGKNiSvq2rBhw8aiRYu2Kl68uA3mG/72xRdfJJYvXz41s7mX159JJJKUxo0bn7a2tl4jk8ma+vn5LTA05pww6YZwaGjo84ULF/bSp9nU0dHxG4lEYsMYq0REVYioIRFB9d9s/PjxPcPCwsaWLl26grm5+bsLTzt06BAfFhZW6M6dOx+pSEztWUREhHlISIj5kydPnoSFhZ0MCwtbbYx4g5qM9MTRbp5f1SrS3qVjKYOq8o6GvorfG/wq5Nqd2M779u1L0qRtmubRG2FChf37y9wafl7kt3GysnaaNsBQ+V4lKGmRV+S1q/feOOhLHaePtoIE+Pr6/oc7hh0dHVtmlGllZXVxy5Ytiab0rE2bNua4mkEf/c+JjH79+tkkJye3Tk1NjUxf3t/fPzgznJDHlJ9JJBJrQRAeKpXK+3K5PD4nmOihjEQmk9UUBKGWCldzc/OnPj4+9zPDNK8/S01NTYiMjLxpZ2dXT6lUwo+xrCAIW/38/FbrActMRXDCpDOyEYIgVNBZylsBUqk0hojwHbMmonfkhzF2wd/fX4zNI5VK7SQSSUWFQpF2w/bbbwkc+BUKxUenHfGdMaVn0JalpqbWMzc3v+7j4/NIX9jpSw6u96ldpch8WTvruvoOSQSt0ra9sXeeRqd4rPbw/kNfbU4vR6+ECYKdnJw61a9muWqiq+3nRSzfzTlDtD1LmXcfJ9HGXbEXbz5I6BkYGGiwI6lG7RSvjCPAEdAbAlKpVEZE44nogSAI2/z8/PbqTXg6QYyxRCKyNIRsU5EJM2dsbCylD86JsA04VVuzZs7dEIODg18sX768p740TI6Ojr8KggCzW/qF6Y5EInH09fW9ZCp4FoR2jBvpusSmpFn3Xq2tP/+imm4uF2HhyRRw7OWD8Ojk848iU+ALajCNvd4JEwYbzqXVPyvs7dKxVOP6nxvHZqmaZHtOxz0/euHV+SWrd+AiR544AhwBjkCWCDg6Ok4TBGEAY2y/UqmcHxgYGK4vuDQJKzBz5kxatmwZvXr1imxtbalMmTIEn8GGDRvSmDFjqGvXrvpqjsHkODk5wYmeXr58SY8ePaLx48dTUFAQLViwgCZPnpzjevXtw+Tg4FBfIpHgwEoZNIoxxhBTTi6Xz8lxI3nBHCMAy0W9WhWmFC9i5lizkqVti3rFKtaw02xv8TAymUKuJTy7dCcxKv6N4lhEDJunj1Nw6jpjEMKkqnTiaDePKhUsvh/Uw+YzQ2ubHkQk07Y9z28/jkla5LHB10Ndx/lzjgBHgCMABBCZWKFQTFUqleMkEsl8xtgCfZhKNTXJjRo1itasWUNHjhyhtm3bUkJCAg0YMIDkcjl5e3vDKdmkB+rmzZsELVPr1mm3Tb1+/ZqsrKxMijA5OTlNYYzNEQRBzhiDKwT8l3BbfTu5XP7MpAEuAI2TSqWf25YuJLU0Zx2KFJaUtSpqVtTaSmJRzNLMXBCI3iQpFc/jFamv3ygSEpIoNjVVEfwoMtknICDgH2PCY1DC9FbbVL9KxcKrGtcqUqN3G+tylhb6rTI8JoV8D714+Cgq5cydh6+G7Ny585UxAeR1cQQ4AvkDAXt7+6pmZmbriAjBZpebm5uv0WXXqilhmj17Ns2aNYv+/vvvd6Tj5MmT4r+lUilin2kF8NvTl1qVSZ85u/KayE5NTSWErTAFDZOTk1N/xtgUnEZljI3DyUipVLoMLreMsUH+/v6BOQaKFzQoAlKptCQRWSkUCsHMzCzBkKY2TTuiX/aSTa1OTk5ff1bOYt5n5SyqdW5e4jNNVW9ZiQy59podPB9/7/nL1JCw8MSpgYGBDzTtNM/HEeAIcASyQkAmk9VWKpU4Zj6MiLYRkadcLj+aHWJOTk5/K5XKFxKJZKHqnkpdCNP69etp6NCh9Msvv9CcOe8tRgcPHqRFixbR2bNnqWXLlrRq1SpSBXi9fPkyubu7i2TlyZMnNHjwYFFThfTPP//QlClTKDExUTSdubq60qRJk8RnHh4etGPHDrhS0I0bN0StVoMGDWj37t1UokSan3NWsuGrhLJo7/3798nMzIwyI0zZtTsrXHNqknN1dS2VnJzcXxAEXK/0RBCERX5+fgdU9djb21fQp+mVv0kFBwGjESYVpFKptHzFMuYjCluadS5jbW7bsEaRMp9/WqgYIoVbmGfenNeJSnoSlULXHyTGXrmb+PxFvOLJi1epWzZs9kXsGvFINE8cAY4AR0CfCPTu3dvG3Nwcd0+5ElFpIkLwv/3FihU7jpOs6euSSqW7iKgbEd1njIVIJJLljLHimkT6VmmYdu7cSbVq1SKQi9GjRxOusEEsHdXdfyBJY8eOpePHj9PDhw/p22+/FX2eLl26JPoOffnll2J+EKgJEyaIvlFPnz6luLg4Ue6hQ4cQioOCg4Pp66+/FvP88ccfiDJPP/zwAxUvXpw2b94s+lANHz6cVq5cKbYjLCwsS9lRUVE0bdo02rdvn0iUMiNM2bU7u+uPtAkrgHWFiDoQUQ+40RLRdiJCKJS/9TknuKyCjYDRCVN6uDt37mxpZWWFsOntJAI1NJMINmbmQmEziWDGlIyUjKWkKtgbphSeJiYrz0XHKY/7+vpeLNhDxnvPEeAIGBsBOAybmZl1Y4y1J6Jv3vq/XCGiMIRmYIxVfxvTR9W0CCKK+v777+sOHDjwXUyfzNqtIkw1atSgW7duiVkWL15MI0aMoCJF3h+a6datG4Fg9OzZU8wD7RIIErRCID4oe+JE2rVrIFQbN24UyQw0VadPn6a7d9/H72vXrh0dPXpUJFTwN4Im6bfffhPzw+xWsmRJUTu1YsUKUVOVlWwElUW5GTNmZEmYsmt3dqfoYmNjo4YPH+4kCIKEMaYUBOFLxth9IirJGOssCMI9IsL9SV8SkS0RHWWM7bW0tAzw8vKKM/Yc4fXlfwRylTDlf3h5DzkCHIH8hgDuh4yJiWkkkUhqC4KA2w2slEqlTBCEjLcaJ9WpU8di1qxZ2cZXSe/DFBISQj/++KNIigIDA0kieV8UpAbkpUMHKFLepxYtWlDjxo1F5/Bff/04ED9ICbRVcCpXJZjuYOrD35o1ayaSpt9//52mTk0Ldl2tWjXq2LEjrV27Vvx3VrKRd/78+SLRykrDlF27ra0REinzdPDgwbgNGzaAFL18a0mANQE+qvh/FcYYzGxhjLHLAQEBiG3HE0fAoAhwwmRQeLlwjgBHoCAgkM4kh+7eFwQhhDG2a9GiRRvs7OyyvUQrPWFq1aoVdenShQ4cOCBqjUCekBDTCNolEKLp06d/BClISfPmzUVzXsYEwhMfHy+eZFMlf39/0aEc9cA8lx1hyk62OsIEP6ns2p3d3MipD1NBmG+8j7mDACdMuYM7r5UjwBHIRwhIpdJjRFRVEIRzjLEVcrn8lKZO3zghB9KkOiUXERFBMM8hNtOpU6dEQoMETRG0ODDBqS5Phn8QHK9hOoN2Cj5FKp8nmOdgXlu+fLkYFwkmOdVdlnAc/+mnn+jBgwdkY2OTLWFq2rRplrLhR6VOw5Rdu/v06ZPlLOCEKR+9IPmkK5ww5ZOB5N3gCHAEcg8BJyen1hkjUmtKmOBwvWXLFtq+fTu5ubmJnYCmqFOnTmIwS9w4X6FCBdGvCRonBLPEb8Q/8vHxEbVEKDto0CCqX7++GCwSPkdnzpwRnbHPnTsnkq70JrdevXoRLl/28vIiEDTIB3GDqU6pVBJMZcizbds22rRpU5ay4eSNtqBtcBYH+Xr+/DmVLl2aEJQTRDC7dhcqlLXyjROm3JvPvObMEeCEic8MjgBHgCNgAAQ0IUw46r9w4UKxdvgZwa8IBApJ9Qx/hwM3tDlDhgwRT7UhQQuF4JYgSTDZgaDAARsJBAnhAT777DPx/yiDAJlwAE9JSRG1TfgbTsahPhAuaJ9AkPbu3SvKwTNfX1/Rlykr2ZABwgTNFkIVwPkbeQMCAsT+QPMFE2NW7c4Odk6YDDApuUidEOCESSf4eGGOAEeAI5A5ApoQppxg9+LFCzFUAMiQgDDI6RLiLCFSODQ8GVNSUpKoeYLWqly5clpXnZ1sTYRl1+7MymsTVkCT+nkejoCuCHDCpCuCvDxHgCPAEcgEAUMRpgIEdoQgCBUKUH95V00cAU6YTHyAePM4AhyBvIsAYwwBLjW7UTTvdtMgLQ8ODn6xfPnynhl9wwxSGRfKEdAAAU6YNACJZ+EIcAQ4AtoiIJPJ6i1cuDBUXVgBbeUWlPzch6mgjHTe6ScnTHlnrHhLOQIcgTyEADfJ6TZYnDDphh8vrX8EOGHSP6ZcIkeAI8ARQGDI7zW5S45DlTkCnDDxmWFqCHDCZGojwtvDEeAI5AsEOGHSbRg5YdINP15a/whwwqR/TLlEjgBHgCPANUw6zgEeVkBHAHlxvSPACZPeIeUCOQIcAY4AUZ8+fRxGjBjh3bJlSwuOR44Q4GEFcgQbL2QoBDhhMhSyXC5HgCNQ4BFgjN0homoFHogcAHD69Ok7q1at6uDj43M/B8V5EY6A3hHghEnvkHKBHAGOAEcgDYGTJ096t2jRwhl3rvGkOQKICr5hw4YTwcHB0qCgoCjNS/KcHAHDIcAJk+Gw5ZI5AhyBAo7A4MGDJ3Xt2nVar169bAo4FFp138/PLzwoKGiOj4/POq0K8swcAQMiwAmTAcHlojkCHAGOwKRJkxY0atRIVr9+/Up16tQhiUTCQckCgbCwMDpx4sTdkJAQ79WrV//CgeIImBICnDCZ0mjwtnAEOAL5EgGZTGZft27ddpUqVSrbr1+/a4cOHaocHBxcL31na9as+cDZ2flyAX52btu2bW927979QC6X78yXE4F3Kk8jwAlTnh4+3niOAEcgjyKQ1beXEVFBfpZHh5M3uyAgwAlTQRhl3keOAEeAI8AR4AhwBHRCgBMmneDjhTkCHAGOAEeAI8ARKAgIcMJUEEaZ95EjwBHgCHAEOAIcAZ0Q4IRJJ/h4YY4AR4AjwBHgCHAECgICnDAVhFHmfeQIcAQ4AhwBjgBHQCcEOGHScFI6sQAAAIBJREFUCT5emCPAEeAIcAQ4AhyBgoAAJ0wFYZR5HzkCHAGOAEeAI8AR0AkBTph0go8X5ghwBDgCHAGOAEegICDACVNBGGXeR44AR4AjwBHgCHAEdEKAEyad4OOFOQIcAY4AR4AjwBEoCAhwwlQQRpn3kSPAEeAIcAQ4AhwBnRD4P9zf2VBM0v1nAAAAAElFTkSuQmCC;" vertex="1" parent="1">
                    <mxGeometry x="360" y="193" width="306.25" height="50" as="geometry"/>
                </mxCell>
                <mxCell id="47" value="Aurora Serverless&lt;br&gt;" style="outlineConnect=0;fontColor=#F0F0F0;gradientColor=#4D72F3;gradientDirection=north;fillColor=#3334B9;strokeColor=#FFFFFF;dashed=0;verticalLabelPosition=bottom;verticalAlign=top;align=center;html=1;fontSize=12;fontStyle=0;aspect=fixed;shape=mxgraph.aws4.resourceIcon;resIcon=mxgraph.aws4.aurora;" vertex="1" parent="1">
                    <mxGeometry x="490" y="320" width="40" height="40" as="geometry"/>
                </mxCell>
                <mxCell id="60" value="" style="group" vertex="1" connectable="0" parent="1">
                    <mxGeometry x="448" y="230" width="30" height="26" as="geometry"/>
                </mxCell>
                <mxCell id="58" value="" style="outlineConnect=0;fontColor=#232F3E;gradientColor=#F78E04;gradientDirection=north;fillColor=#D05C17;strokeColor=#ffffff;dashed=0;verticalLabelPosition=bottom;verticalAlign=top;align=center;html=1;fontSize=12;fontStyle=0;aspect=fixed;shape=mxgraph.aws4.resourceIcon;resIcon=mxgraph.aws4.lambda;labelBackgroundColor=#ffffff;" vertex="1" parent="60">
                    <mxGeometry x="10" y="6" width="20" height="20" as="geometry"/>
                </mxCell>
                <mxCell id="59" value="" style="outlineConnect=0;fontColor=#232F3E;gradientColor=#F78E04;gradientDirection=north;fillColor=#D05C17;strokeColor=#ffffff;dashed=0;verticalLabelPosition=bottom;verticalAlign=top;align=center;html=1;fontSize=12;fontStyle=0;aspect=fixed;shape=mxgraph.aws4.resourceIcon;resIcon=mxgraph.aws4.lambda;labelBackgroundColor=#ffffff;" vertex="1" parent="60">
                    <mxGeometry x="5" y="3" width="20" height="20" as="geometry"/>
                </mxCell>
                <mxCell id="57" value="&lt;font style=&quot;font-size: 8px&quot;&gt;&amp;nbsp; &amp;nbsp;Lambda&lt;/font&gt;" style="outlineConnect=0;fontColor=#232F3E;gradientColor=#F78E04;gradientDirection=north;fillColor=#D05C17;strokeColor=#ffffff;dashed=0;verticalLabelPosition=bottom;verticalAlign=top;align=center;html=1;fontSize=12;fontStyle=0;aspect=fixed;shape=mxgraph.aws4.resourceIcon;resIcon=mxgraph.aws4.lambda;labelBackgroundColor=#ffffff;" vertex="1" parent="60">
                    <mxGeometry width="20" height="20" as="geometry"/>
                </mxCell>
                <mxCell id="61" value="" style="group" vertex="1" connectable="0" parent="1">
                    <mxGeometry x="494" y="229" width="30" height="26" as="geometry"/>
                </mxCell>
                <mxCell id="62" value="" style="outlineConnect=0;fontColor=#232F3E;gradientColor=#F78E04;gradientDirection=north;fillColor=#D05C17;strokeColor=#ffffff;dashed=0;verticalLabelPosition=bottom;verticalAlign=top;align=center;html=1;fontSize=12;fontStyle=0;aspect=fixed;shape=mxgraph.aws4.resourceIcon;resIcon=mxgraph.aws4.lambda;labelBackgroundColor=#ffffff;" vertex="1" parent="61">
                    <mxGeometry x="10" y="6" width="20" height="20" as="geometry"/>
                </mxCell>
                <mxCell id="63" value="" style="outlineConnect=0;fontColor=#232F3E;gradientColor=#F78E04;gradientDirection=north;fillColor=#D05C17;strokeColor=#ffffff;dashed=0;verticalLabelPosition=bottom;verticalAlign=top;align=center;html=1;fontSize=12;fontStyle=0;aspect=fixed;shape=mxgraph.aws4.resourceIcon;resIcon=mxgraph.aws4.lambda;labelBackgroundColor=#ffffff;" vertex="1" parent="61">
                    <mxGeometry x="5" y="3" width="20" height="20" as="geometry"/>
                </mxCell>
                <mxCell id="64" value="&lt;font style=&quot;font-size: 8px&quot;&gt;&amp;nbsp; &amp;nbsp;Lambda&lt;/font&gt;" style="outlineConnect=0;fontColor=#232F3E;gradientColor=#F78E04;gradientDirection=north;fillColor=#D05C17;strokeColor=#ffffff;dashed=0;verticalLabelPosition=bottom;verticalAlign=top;align=center;html=1;fontSize=12;fontStyle=0;aspect=fixed;shape=mxgraph.aws4.resourceIcon;resIcon=mxgraph.aws4.lambda;labelBackgroundColor=#ffffff;" vertex="1" parent="61">
                    <mxGeometry width="20" height="20" as="geometry"/>
                </mxCell>
                <mxCell id="65" value="" style="group" vertex="1" connectable="0" parent="1">
                    <mxGeometry x="545" y="243" width="30" height="26" as="geometry"/>
                </mxCell>
                <mxCell id="66" value="" style="outlineConnect=0;fontColor=#232F3E;gradientColor=#F78E04;gradientDirection=north;fillColor=#D05C17;strokeColor=#ffffff;dashed=0;verticalLabelPosition=bottom;verticalAlign=top;align=center;html=1;fontSize=12;fontStyle=0;aspect=fixed;shape=mxgraph.aws4.resourceIcon;resIcon=mxgraph.aws4.lambda;labelBackgroundColor=#ffffff;" vertex="1" parent="65">
                    <mxGeometry x="10" y="6" width="20" height="20" as="geometry"/>
                </mxCell>
                <mxCell id="67" value="" style="outlineConnect=0;fontColor=#232F3E;gradientColor=#F78E04;gradientDirection=north;fillColor=#D05C17;strokeColor=#ffffff;dashed=0;verticalLabelPosition=bottom;verticalAlign=top;align=center;html=1;fontSize=12;fontStyle=0;aspect=fixed;shape=mxgraph.aws4.resourceIcon;resIcon=mxgraph.aws4.lambda;labelBackgroundColor=#ffffff;" vertex="1" parent="65">
                    <mxGeometry x="5" y="3" width="20" height="20" as="geometry"/>
                </mxCell>
                <mxCell id="68" value="&lt;font style=&quot;font-size: 8px&quot;&gt;&amp;nbsp; &amp;nbsp;Lambda&lt;/font&gt;" style="outlineConnect=0;fontColor=#232F3E;gradientColor=#F78E04;gradientDirection=north;fillColor=#D05C17;strokeColor=#ffffff;dashed=0;verticalLabelPosition=bottom;verticalAlign=top;align=center;html=1;fontSize=12;fontStyle=0;aspect=fixed;shape=mxgraph.aws4.resourceIcon;resIcon=mxgraph.aws4.lambda;labelBackgroundColor=#ffffff;" vertex="1" parent="65">
                    <mxGeometry width="20" height="20" as="geometry"/>
                </mxCell>
            </root>
        </mxGraphModel>
    </diagram>
</mxfile>